<svg xmlns="http://www.w3.org/2000/svg" shape-rendering="geometricPrecision" text-rendering="geometricPrecision" image-rendering="optimizeQuality" fill-rule="evenodd" clip-rule="evenodd" viewBox="0 0 419 511.662"><path fill="#25262A" fill-rule="nonzero" d="M47.619 0H379.6c.567 0 1.354.03 2.341.088 18.84 1.116 35.272 15.685 36.925 34.536.246 2.803.109 4.894-.06 7.719l-24.457 411.129c-1.749 29.148-15.96 43.837-35.281 51.27-17.972 6.915-39.546 6.92-59.116 6.92H115.48c-43.033 0-79.615-7.787-82.642-58.713l-.48-8.075H17.012v12.173a6.872 6.872 0 01-13.743 0v-19.045a6.872 6.872 0 016.872-6.871H31.54l-1.305-21.925H6.872A6.872 6.872 0 010 402.334V383.29a6.872 6.872 0 0113.743 0v12.172h15.675L8.265 39.87a39.435 39.435 0 01-.082-2.12c0-20.335 17.243-36.481 37.092-37.662A42.675 42.675 0 0147.619 0z"/><path fill="#AED9F0" d="M47.619 8.246H379.6c17.128 0 32.156 14.055 31.141 31.141l-24.588 413.371c-2.898 50.639-48.414 50.658-86.201 50.658H115.48c-37.493 0-71.671-4.547-74.429-50.95L16.478 39.387C15.462 22.291 30.491 8.246 47.619 8.246z"/><path fill="#25262A" fill-rule="nonzero" d="M86.101 47.928H341.12c.895 0 1.878.041 2.945.121 19.402 1.449 36.515 17.294 36.515 37.282 0 .767-.035 1.631-.106 2.596l-19.123 255.725c-1.807 28.998-15.995 43.632-35.266 51.046-17.972 6.914-39.546 6.919-59.116 6.919H148.465c-19.815 0-38.699-1.283-53.744-9.027-15.99-8.231-26.913-23.003-28.898-49.557L46.734 87.714a35.114 35.114 0 01-.095-2.393c0-20.006 17.092-35.822 36.509-37.272a39.987 39.987 0 012.953-.121z"/><path fill="#C4E7F4" d="M86.101 56.174H341.12c17.127 0 32.413 14.109 31.141 31.141L353.17 342.714c-2.898 50.638-48.414 50.657-86.201 50.657H148.465c-37.493 0-70.964-4.596-74.43-50.95L54.96 87.315c-1.277-17.082 14.013-31.141 31.141-31.141z"/><path fill="#25262A" fill-rule="nonzero" d="M64.758 209.517c-2.274.104-4.213-1.471-4.329-3.518-.115-2.048 1.635-3.793 3.909-3.897 7.865-.384 14.419-2.546 19.86-6.207 5.526-3.716 9.989-9.034 13.579-15.654 1-1.846 3.474-2.614 5.526-1.716.93.409 1.615 1.09 1.992 1.886 4.148 7.476 10.398 13.111 17.525 16.614 5.548 2.728 11.625 4.173 17.642 4.194 5.953.022 11.871-1.353 17.174-4.26 6.025-3.301 11.296-8.611 14.992-16.127.918-1.879 3.358-2.732 5.444-1.904.976.386 1.703 1.072 2.106 1.885 3.498 5.632 7.367 10.183 11.508 13.619 5.633 4.673 11.746 7.215 18.065 7.539 6.388.327 13.153-1.581 20.026-5.808 5.908-3.632 11.882-8.97 17.762-16.058 1.364-1.645 3.955-1.984 5.783-.756a3.791 3.791 0 011.357 1.579c3.678 7.245 8.998 12.666 15.132 16.109a34.418 34.418 0 0016.112 4.421c5.626.122 11.38-1.142 16.8-3.871 7.165-3.607 13.771-9.798 18.807-18.772 1.025-1.83 3.507-2.566 5.541-1.642.945.429 1.627 1.14 1.984 1.963 3.62 8.256 8.152 14.392 13.71 18.126 5.296 3.558 11.692 4.957 19.309 3.948 2.257-.297 4.355 1.109 4.684 3.14.329 2.031-1.233 3.919-3.489 4.216-9.92 1.315-18.352-.576-25.447-5.343-5.12-3.439-9.453-8.362-13.067-14.638-5.167 7.003-11.367 12.133-18.026 15.487-6.729 3.387-13.922 4.955-20.999 4.801a43.284 43.284 0 01-20.28-5.527c-5.915-3.32-11.181-8.096-15.294-14.23-5.162 5.541-10.435 9.928-15.728 13.182-8.422 5.181-16.915 7.51-25.13 7.088-8.283-.425-16.132-3.623-23.201-9.488-3.316-2.751-6.466-6.106-9.414-10.053-4.049 5.913-9.116 10.365-14.751 13.453-6.641 3.641-14.051 5.363-21.504 5.336-7.386-.026-14.81-1.781-21.549-5.095-6.639-3.263-12.627-8.039-17.28-14.162-3.489 5.015-7.61 9.218-12.458 12.479-6.723 4.523-14.773 7.19-24.383 7.661zM368.136 256.024l-3.313 74.203c.328 16.475-2.571 29.915-8.669 40.603-6.423 11.255-16.174 19.313-29.215 24.487-25.705 10.201-103.133 8.384-153.906 7.194-12.642-.295-23.515-.552-32.682-.552-20.661 0-37.852-2.133-51.124-10.691-13.425-8.658-21.982-23.263-24.743-47.85l-.066-.615-5.334-85.77c-.23-4.083 3.259-7.561 7.794-7.769 6.802-.333 11.856-2.141 15.883-5.196 4.348-3.296 7.904-8.291 11.324-14.599l.013.005c.771-1.425 2.053-2.64 3.755-3.396 4.073-1.809 9.006-.304 11.016 3.362 3.759 6.861 9.438 12.014 15.909 15.196 4.956 2.437 10.364 3.726 15.699 3.746 5.21.018 10.386-1.185 15.023-3.725 5.34-2.927 10.036-7.684 13.372-14.467l.029.012c.699-1.433 1.906-2.677 3.545-3.491 3.966-1.968 8.957-.67 11.145 2.899 3.31 5.383 6.967 9.711 10.873 12.951 4.92 4.082 10.167 6.298 15.512 6.572 5.482.28 11.387-1.418 17.489-5.173 5.531-3.4 11.173-8.457 16.783-15.22a8.185 8.185 0 013.221-2.319c4.143-1.68 9.018-.018 10.886 3.711 3.33 6.61 8.12 11.526 13.624 14.616 4.367 2.451 9.181 3.768 14.042 3.873 4.884.106 9.911-1.006 14.681-3.409 6.452-3.25 12.432-8.855 17.053-17.006.863-1.666 2.411-3.048 4.464-3.77 4.233-1.488 9.007.394 10.661 4.203 3.41 7.785 6.987 13.492 11.322 16.768 3.647 2.757 8.291 3.82 14.529 2.993l.002.014c.493-.065.998-.09 1.512-.072 4.535.16 8.068 3.6 7.891 7.682z"/><path fill="#6EBAEA" d="M356.604 330.068l3.319-74.334c-17.538 2.327-26.901-6.581-34.708-24.399-18.945 33.748-59.443 31.468-74.364 1.841-26.433 31.862-55.68 30.507-74.443 0-15.929 32.392-59.359 27.923-74.915-.461-7.747 14.286-16.72 23.086-34.196 23.941l5.334 85.741c4.923 44.724 29.557 52.141 67.72 52.141 38.619 0 152.806 6.085 183.27-6.004 22.592-8.965 33.672-27.724 32.983-58.466z"/><path fill="#25262A" fill-rule="nonzero" d="M235.022 397.489v15.745a4.123 4.123 0 01-4.123 4.123h-19.734a4.122 4.122 0 01-4.123-4.123v-15.745h-1.594a4.123 4.123 0 01-4.123-4.123v-44.731c0-5.659 4.657-10.315 10.315-10.315h5.226v-7.284l-27.502-8.705a4.12 4.12 0 012.481-7.858l30.218 9.565a4.125 4.125 0 013.049 3.981v10.301h5.357c5.645 0 10.269 4.625 10.269 10.27v44.776a4.123 4.123 0 01-4.123 4.123h-1.593z"/><path fill="#5087AB" d="M230.899 397.489v15.745h-19.734v-15.745z"/><path fill="#A1D2F2" d="M211.64 342.443h18.829c3.381 0 6.146 2.765 6.146 6.147v44.776h-31.167v-44.731c0-3.406 2.786-6.192 6.192-6.192z"/></svg>