<?xml version="1.0" encoding="UTF-8" standalone="no"?>
<svg
   version="1.1"
   width="500"
   height="500"
   id="svg41"
   sodipodi:docname="6859e2a3-a637-44d4-aba1-b80d074eb098.svg"
   xmlns:inkscape="http://www.inkscape.org/namespaces/inkscape"
   xmlns:sodipodi="http://sodipodi.sourceforge.net/DTD/sodipodi-0.dtd"
   xmlns="http://www.w3.org/2000/svg"
   xmlns:svg="http://www.w3.org/2000/svg">
  <defs
     id="defs41" />
  <sodipodi:namedview
     id="namedview41"
     pagecolor="#ffffff"
     bordercolor="#000000"
     borderopacity="0.25"
     inkscape:showpageshadow="2"
     inkscape:pageopacity="0.0"
     inkscape:pagecheckerboard="0"
     inkscape:deskcolor="#d1d1d1" />
  <path
     d="M0 0 C1.13909317 -0.00686325 2.27818634 -0.0137265 3.45179749 -0.02079773 C7.20635545 -0.03905579 10.96049518 -0.03522949 14.71508789 -0.02954102 C17.33150874 -0.0341032 19.9479284 -0.03940888 22.56434631 -0.04542542 C28.04424011 -0.0554404 33.52401579 -0.05217018 39.00390625 -0.04199219 C45.32346748 -0.03051346 51.6426042 -0.04458777 57.96210951 -0.07138866 C64.06022961 -0.09627492 70.15815483 -0.09871391 76.25631905 -0.0922718 C78.84263375 -0.09211861 81.42895664 -0.09816148 84.01524162 -0.11056328 C87.63417847 -0.12547251 91.25218561 -0.11479521 94.87109375 -0.09765625 C95.93472137 -0.10732422 96.998349 -0.11699219 98.09420776 -0.12695312 C105.47685134 -0.05389468 110.77887352 1.19275415 116.52368164 6.15014648 C117.19270508 6.98739258 117.19270508 6.98739258 117.87524414 7.84155273 C118.5674707 8.67493164 118.5674707 8.67493164 119.27368164 9.52514648 C121.78610967 13.37380216 122.74975736 16.86095628 122.76766968 21.43122864 C122.78046463 22.91350197 122.78046463 22.91350197 122.79351807 24.42572021 C122.79215851 26.03498383 122.79215851 26.03498383 122.79077148 27.67675781 C122.79748871 28.81555893 122.80420593 29.95436005 122.81112671 31.12767029 C122.83012715 34.89301922 122.83403203 38.65819009 122.83618164 42.42358398 C122.84260831 45.04286268 122.84933658 47.66214066 122.85635376 50.28141785 C122.8691345 55.77323566 122.87211974 61.26500526 122.87084961 66.75683594 C122.86964903 73.09110675 122.89073729 79.42503638 122.92233694 85.7592209 C122.95171359 91.86692942 122.95882373 97.97447512 122.95763016 104.0822506 C122.95998812 106.67415446 122.96882257 109.26606093 122.98429489 111.85791969 C123.00392763 115.48662095 122.99812631 119.11444822 122.98608398 122.74316406 C122.997323 123.80993378 123.00856201 124.87670349 123.0201416 125.97579956 C122.96168118 132.92111515 121.98035624 138.64976523 117.12372398 143.88901997 C110.13291882 150.08231177 104.09190478 150.84857395 95.12988281 150.82397461 C93.99254196 150.83244415 92.85520111 150.8409137 91.68339539 150.84963989 C87.92822039 150.87301484 84.17345511 150.87403178 80.41821289 150.87280273 C77.80275814 150.87990465 75.18730495 150.88760369 72.57185364 150.89587402 C67.09018637 150.91046541 61.60863288 150.91106862 56.12695312 150.9050293 C49.80792644 150.89839494 43.48948443 150.92123322 37.17057627 150.95834303 C31.07298463 150.9928423 24.97566741 150.99936858 18.877985 150.99525452 C16.29248629 150.99694504 13.70697984 151.00658086 11.12154198 151.0243988 C7.50015706 151.0466073 3.88017043 151.0368743 0.25878906 151.01928711 C-0.80281433 151.03255035 -1.86441772 151.0458136 -2.95819092 151.05947876 C-10.93237666 150.96979017 -16.91374835 148.9510819 -22.65600586 143.27124023 C-23.09944336 142.61381836 -23.54288086 141.95639648 -23.99975586 141.27905273 C-24.46381836 140.61647461 -24.92788086 139.95389648 -25.40600586 139.27124023 C-27.31875774 136.00589952 -27.62847709 133.31736074 -27.64692688 129.61738586 C-27.65408218 128.63195297 -27.66123749 127.64652008 -27.66860962 126.63122559 C-27.67129852 125.55119263 -27.67398743 124.47115967 -27.67675781 123.35839844 C-27.68332901 122.21988937 -27.68990021 121.08138031 -27.69667053 119.90837097 C-27.71641701 116.13219133 -27.72806956 112.3560515 -27.73803711 108.57983398 C-27.74211264 107.29072805 -27.74618816 106.00162212 -27.75038719 104.67345238 C-27.76910208 98.55347291 -27.78366591 92.4335134 -27.79199916 86.31351119 C-27.80176218 79.26072624 -27.82805817 72.20825592 -27.86850005 65.15558177 C-27.90236799 59.03828412 -27.91414991 52.92111811 -27.91820335 46.80373192 C-27.92307358 44.20623835 -27.93469985 41.60874825 -27.95324135 39.0113163 C-27.97759843 35.37284988 -27.97667333 31.73520275 -27.96972656 28.09667969 C-27.98253662 27.02676788 -27.99534668 25.95685608 -28.00854492 24.85452271 C-27.95332092 16.90526982 -26.23162214 11.72659281 -21.18725586 5.59155273 C-14.47669441 0.12946784 -8.35563313 -0.03529682 0 0 Z "
     fill="#020859"
     transform="translate(202.499755859375,99.595947265625)"
     id="path1" />
  <path
     d="M0 0 C4.970625 -0.04125 9.94125 -0.0825 15.0625 -0.125 C17.39453491 -0.15231201 17.39453491 -0.15231201 19.77368164 -0.18017578 C21.01496826 -0.1851709 22.25625488 -0.19016602 23.53515625 -0.1953125 C25.42826538 -0.21102295 25.42826538 -0.21102295 27.35961914 -0.22705078 C33.67343031 0.16674202 38.42166824 1.55247772 43 6 C45.7299694 10.4576773 45.54424788 14.92035308 45 20 C43.52091164 23.31034062 41.6773109 25.57767109 39 28 C39.763125 28.226875 40.52625 28.45375 41.3125 28.6875 C44.66286693 30.32372571 45.37470025 31.6795452 47 35 C47.89040373 40.44630279 48.06835563 46.19479135 45.0625 51 C40.5989668 55.79395986 35.69270931 57.77585107 29.17553711 58.31835938 C24.76021591 58.43864817 20.35314784 58.34799543 15.9375 58.25 C10.678125 58.1675 5.41875 58.085 0 58 C0 38.86 0 19.72 0 0 Z "
     fill="#F4F8FA"
     transform="translate(257,140)"
     id="path2" />
  <path
     d="M0 0 C4.90875 -0.103125 9.8175 -0.20625 14.875 -0.3125 C16.40237793 -0.35802002 17.92975586 -0.40354004 19.50341797 -0.45043945 C27.6286647 -0.53267879 34.24117771 0.01222004 41 5 C43.25390625 7.3515625 43.25390625 7.3515625 44.5625 9.625 C45.24505859 10.75808594 45.24505859 10.75808594 45.94140625 11.9140625 C49.95159042 19.81604902 49.14246185 31.89739838 47.24609375 40.3671875 C46.32751103 42.73749115 45.32436099 44.83411796 44 47 C43.4225 47.94875 42.845 48.8975 42.25 49.875 C36.61704257 55.19501535 29.96738214 57.13086193 22.36328125 57.09765625 C20.60818237 57.09390991 20.60818237 57.09390991 18.81762695 57.09008789 C16.58758911 57.07643188 16.58758911 57.07643188 14.3125 57.0625 C9.589375 57.041875 4.86625 57.02125 0 57 C0 38.19 0 19.38 0 0 Z "
     fill="#F3F9FC"
     transform="translate(199,141)"
     id="path3" />
  <path
     d="M0 0 C8.1984375 -0.0928125 8.1984375 -0.0928125 16.5625 -0.1875 C19.12946655 -0.22846802 19.12946655 -0.22846802 21.74829102 -0.27026367 C23.12515561 -0.27903653 24.50202807 -0.28667857 25.87890625 -0.29296875 C26.92637024 -0.3159906 26.92637024 -0.3159906 27.99499512 -0.33947754 C33.14467598 -0.34218552 36.51440198 0.65521596 41 3 C45.43028706 7.78004656 46.3857239 10.93597675 46.3671875 17.3125 C45.78020203 21.60873405 43.62868817 24.63903441 41 28 C41.62390625 28.29003906 42.2478125 28.58007812 42.890625 28.87890625 C45.95396874 30.50701672 46.67847347 31.76226001 48 35 C48.701097 41.21513012 48.72158213 46.73845284 45 52 C39.40241054 57.30297949 34.38979138 58.30089694 26.85546875 58.1953125 C26.17246704 58.19329834 25.48946533 58.19128418 24.7857666 58.18920898 C22.252942 58.17880493 19.72021372 58.15088258 17.1875 58.125 C8.6796875 58.063125 8.6796875 58.063125 0 58 C0 38.86 0 19.72 0 0 Z M12 11 C12 14.63 12 18.26 12 22 C14.93804996 22.08086376 17.87388075 22.1404283 20.8125 22.1875 C21.64587891 22.21263672 22.47925781 22.23777344 23.33789062 22.26367188 C24.14033203 22.27333984 24.94277344 22.28300781 25.76953125 22.29296875 C26.50792236 22.3086792 27.24631348 22.32438965 28.00708008 22.34057617 C30.56964924 21.9026509 31.430711 21.03525226 33 19 C33.58333333 16.5 33.58333333 16.5 33 14 C31.20374278 12.00468525 29.76175298 11.09423948 27.07788086 10.76220703 C24.79473678 10.70461237 22.53261685 10.73868403 20.25 10.8125 C19.45722656 10.82603516 18.66445313 10.83957031 17.84765625 10.85351562 C15.89814436 10.88874777 13.94898374 10.94255179 12 11 Z M12 33 C12 37.62 12 42.24 12 47 C14.89740622 47.13539281 17.78845621 47.23426829 20.6875 47.3125 C21.50412109 47.35439453 22.32074219 47.39628906 23.16210938 47.43945312 C27.59842724 47.52925713 29.42335203 47.43541313 33.078125 44.67578125 C35.29291857 42.12585557 35.29291857 42.12585557 35.0625 38.875 C33.79388887 35.44228752 33.2138386 34.70438408 30 33 C26.90750884 32.63701571 23.85813272 32.71779908 20.75 32.8125 C19.48929687 32.83280273 19.48929687 32.83280273 18.203125 32.85351562 C16.13514062 32.88876536 14.06748729 32.9425698 12 33 Z "
     fill="#FAFBFD"
     transform="translate(296,262)"
     id="path4" />
  <path
     d="M0 0 C4.764375 -0.061875 9.52875 -0.12375 14.4375 -0.1875 C15.9217749 -0.21481201 17.4060498 -0.24212402 18.93530273 -0.27026367 C27.16702896 -0.32184716 34.31829554 -0.13436146 41.3046875 4.54296875 C48.71603271 12.30460142 50.32792917 21.10372196 50.1484375 31.67578125 C49.58582083 40.48517378 46.73144571 47.88870227 40.0625 53.875 C34.70714954 57.59095747 30.07715707 58.24857155 23.6328125 58.1953125 C21.76713623 58.18781982 21.76713623 58.18781982 19.86376953 58.18017578 C18.29997559 58.16196777 16.73618164 58.14375977 15.125 58.125 C10.13375 58.08375 5.1425 58.0425 0 58 C0 38.86 0 19.72 0 0 Z M13 11 C13 22.88 13 34.76 13 47 C25.34743234 47.89361148 25.34743234 47.89361148 33.734375 42.55859375 C37.43237187 38.00457909 37.16571864 31.37768536 36.875 25.8125 C36.3389169 20.91294983 35.42698194 17.71256376 32 14 C25.97100849 9.7995099 25.97100849 9.7995099 13 11 Z "
     fill="#FAFBFC"
     transform="translate(65,262)"
     id="path5" />
  <path
     d="M0 0 C1.71316406 -0.03867187 1.71316406 -0.03867187 3.4609375 -0.078125 C6.85436235 0.27378573 8.17208921 0.95417216 10.625 3.25 C10.955 2.59 11.285 1.93 11.625 1.25 C15.585 1.25 19.545 1.25 23.625 1.25 C23.69943257 7.79701277 23.75373601 14.34377648 23.78979492 20.89111328 C23.80483512 23.11609185 23.82527246 25.34104101 23.85131836 27.56591797 C23.88791135 30.77318606 23.9047745 33.98006045 23.91796875 37.1875 C23.93345261 38.17427734 23.94893646 39.16105469 23.96488953 40.17773438 C23.96657063 47.15440436 23.36925131 53.27052715 18.4375 58.625 C11.19498938 62.80956169 2.45088677 63.42505174 -5.6796875 61.78515625 C-10.81580979 60.1474116 -13.41852124 57.72951327 -16.375 53.25 C-16.705 51.6 -17.035 49.95 -17.375 48.25 C-12.755 48.25 -8.135 48.25 -3.375 48.25 C-3.045 48.91 -2.715 49.57 -2.375 50.25 C1.34917952 50.98262548 4.33522169 51.48149867 8.0625 50.8125 C10.72935939 48.14564061 10.3883992 44.91731237 10.625 41.25 C9.83222656 41.97896484 9.83222656 41.97896484 9.0234375 42.72265625 C4.43212194 45.64644189 -1.13122717 44.83772049 -6.375 44.25 C-11.71958577 41.71835411 -15.29440927 38.00978208 -17.4609375 32.4765625 C-19.7558614 24.37567726 -19.13810883 15.99531046 -15.65625 8.34765625 C-11.85902459 2.13085733 -7.05701263 0.09515073 0 0 Z M-4.375 14.25 C-5.72332104 16.94664208 -5.54410682 19.11587521 -5.5625 22.125 C-5.57667969 23.17429687 -5.59085937 24.22359375 -5.60546875 25.3046875 C-5.37769831 28.21551645 -4.93945501 29.81950739 -3.375 32.25 C-0.69866974 34.3315902 0.74253668 34.24587591 4.1875 34.125 C7.63525287 33.55901375 7.63525287 33.55901375 9.5 31.375 C11.77454659 27.07863421 12.13047864 23.02496784 11.625 18.25 C10.39908709 14.94003515 9.57931057 12.92725266 6.6875 10.875 C1.51813896 9.30852696 -0.65131075 10.8282315 -4.375 14.25 Z "
     fill="#FAFAFC"
     transform="translate(412.375,275.75)"
     id="path6" />
  <path
     d="M0 0 C0.7425 -0.01611328 1.485 -0.03222656 2.25 -0.04882812 C7.10182758 -0.05311419 10.46976405 0.5642964 14.625 3.3125 C18.60342328 7.32688797 19.13603736 10.07540982 19.19921875 15.66015625 C19.21338333 16.35386826 19.22754791 17.04758026 19.24214172 17.76231384 C19.28386677 19.966702 19.2992432 22.17027359 19.3125 24.375 C19.34163707 26.58291597 19.37626106 28.79063004 19.41499329 30.99839783 C19.44760828 32.99887642 19.46575718 34.99957533 19.4831543 37.00024414 C19.52038865 40.46300411 19.52038865 40.46300411 20.625 44.3125 C16.335 44.3125 12.045 44.3125 7.625 44.3125 C7.625 43.3225 7.625 42.3325 7.625 41.3125 C6.2328125 42.2715625 6.2328125 42.2715625 4.8125 43.25 C-0.26579331 46.53595449 -4.48121665 46.86661638 -10.375 46.3125 C-13.83287516 45.09584022 -15.75650237 43.97223081 -18.25 41.3125 C-20.31996132 35.79260315 -20.36004064 29.80102372 -18.1875 24.3125 C-14.13588399 19.8417513 -9.45997132 18.67290733 -3.6875 17.6875 C1.10429979 16.94683483 1.10429979 16.94683483 5.625 15.3125 C5.295 13.9925 4.965 12.6725 4.625 11.3125 C0.45069213 10.34365275 0.45069213 10.34365275 -3.6875 11.0625 C-5.68783015 12.29416743 -5.68783015 12.29416743 -6.375 15.3125 C-10.335 15.3125 -14.295 15.3125 -18.375 15.3125 C-18.0048852 9.14392002 -16.61724897 6.55474897 -12.375 2.3125 C-8.59564264 -0.32676618 -4.43460544 -0.01904899 0 0 Z M0.1875 25.6875 C-1.29556641 26.07035156 -1.29556641 26.07035156 -2.80859375 26.4609375 C-5.50374837 27.14228906 -5.50374837 27.14228906 -7.375 29.3125 C-7.70833333 31.8125 -7.70833333 31.8125 -7.375 34.3125 C-5.44857392 36.64454711 -5.44857392 36.64454711 -2.0625 36.75 C1.71253346 36.59765538 1.71253346 36.59765538 4.5625 34.25 C7.08043836 30.66384537 7.0456933 28.60357165 6.625 24.3125 C4.45812668 24.3125 2.26296166 25.14232021 0.1875 25.6875 Z "
     fill="#FAFBFD"
     transform="translate(267.375,275.6875)"
     id="path7" />
  <path
     d="M0 0 C3.125 2.1875 3.125 2.1875 5.125 5.1875 C5.41210938 8.38623047 5.41210938 8.38623047 5.46875 12.3046875 C5.4833728 12.99885773 5.49799561 13.69302795 5.51306152 14.40823364 C5.55952025 16.62626403 5.59372933 18.84420664 5.625 21.0625 C5.66628027 23.97688696 5.72003427 26.8906587 5.78125 29.8046875 C5.80928711 31.74770752 5.80928711 31.74770752 5.83789062 33.72998047 C5.98452256 37.54506971 5.98452256 37.54506971 8.125 42.1875 C3.505 42.1875 -1.115 42.1875 -5.875 42.1875 C-6.205 41.5275 -6.535 40.8675 -6.875 40.1875 C-8.009375 40.8475 -9.14375 41.5075 -10.3125 42.1875 C-16.13403553 45.08281236 -21.13147602 45.10200799 -27.25 43.0625 C-30.57848452 40.68501105 -31.58014376 39.07206871 -32.875 35.1875 C-33.6060108 29.52216627 -33.19950603 25.00230184 -29.875 20.1875 C-25.92051333 17.29044017 -21.93313048 16.37261733 -17.1875 15.5625 C-12.39570021 14.82183483 -12.39570021 14.82183483 -7.875 13.1875 C-7.875 11.8675 -7.875 10.5475 -7.875 9.1875 C-12.92509595 8.24963918 -12.92509595 8.24963918 -17.875 9.1875 C-18.535 10.5075 -19.195 11.8275 -19.875 13.1875 C-23.835 13.1875 -27.795 13.1875 -31.875 13.1875 C-30.53571429 4.21428571 -30.53571429 4.21428571 -26.9375 1.1875 C-19.93318247 -3.38674818 -7.57573973 -3.66884253 0 0 Z M-12.75 23.5625 C-13.63429688 23.81773437 -14.51859375 24.07296875 -15.4296875 24.3359375 C-18.08342086 25.14574217 -18.08342086 25.14574217 -20.875 27.1875 C-21.29166667 29.6875 -21.29166667 29.6875 -20.875 32.1875 C-18.94857392 34.51954711 -18.94857392 34.51954711 -15.5625 34.625 C-11.78746654 34.47265538 -11.78746654 34.47265538 -8.9375 32.125 C-6.41956164 28.53884537 -6.4543067 26.47857165 -6.875 22.1875 C-8.87774137 22.1875 -10.84641294 23.00521799 -12.75 23.5625 Z "
     fill="#F9FAFC"
     transform="translate(381.875,277.8125)"
     id="path8" />
  <path
     d="M0 0 C5.76436751 2.69149107 8.87221107 6.55791811 11.12890625 12.46484375 C13.32087141 19.72723381 13.2225147 27.03690457 10.5546875 34.16796875 C7.82621501 39.06290279 3.47823635 42.20435281 -1.43359375 44.71484375 C-9.86087389 46.20201083 -17.25668409 45.98195619 -24.62109375 41.27734375 C-30.32224487 35.72622292 -31.81453923 30.06416341 -31.99609375 22.33984375 C-31.82434393 15.8614406 -31.54743162 10.42987199 -27.00390625 5.53515625 C-19.26094351 -1.4102481 -10.07843802 -2.77870497 0 0 Z M-17.62109375 13.27734375 C-20.17410477 18.26731984 -19.83880864 22.94493098 -18.62109375 28.27734375 C-16.8774121 32.02404561 -16.8774121 32.02404561 -13.62109375 34.27734375 C-7.98790046 34.88915454 -7.98790046 34.88915454 -3.18359375 32.46484375 C0.29055442 27.60103632 -0.05597295 22.01864345 -0.62109375 16.27734375 C-1.86679682 12.57163672 -1.86679682 12.57163672 -4.62109375 10.27734375 C-9.99073659 8.21468345 -13.75304098 8.84045969 -17.62109375 13.27734375 Z "
     fill="#FAFAFC"
     transform="translate(151.62109375,276.72265625)"
     id="path9" />
  <path
     d="M0 0 C1.29550781 -0.02578125 2.59101563 -0.0515625 3.92578125 -0.078125 C10.46359924 0.49215196 14.47386285 3.35307034 18.6875 8.25 C22.96330854 14.66371282 23.40845681 22.61779974 22 30.0625 C20.33252997 36.28772144 17.04608943 40.67760705 11.6875 44.25 C5.21646878 47.33144344 -2.82313656 47.30247481 -9.625 45.1875 C-14.74036404 42.97119238 -17.9662798 38.89172663 -20.453125 34.01171875 C-22.56661992 27.21971461 -22.70156481 17.14884496 -19.75 10.625 C-14.88374882 2.78685971 -9.01296673 0.10697883 0 0 Z M-8.3125 15.25 C-9.3271239 17.0564655 -9.3271239 17.0564655 -9.3125 19.25 C-9.395 20.52875 -9.4775 21.8075 -9.5625 23.125 C-9.51027237 27.12414396 -8.49830522 29.84985855 -6.3125 33.25 C-2.56202518 35.75031654 -0.75393734 35.78603554 3.6875 35.25 C6.84704305 32.70862841 8.40290886 31.10377341 9.6875 27.25 C10.24937335 21.57724023 9.99525098 17.09349251 6.6875 12.25 C4.51609387 10.65763551 2.94809043 10.2980035 0.3125 9.8125 C-3.61726351 10.46746059 -5.54252281 12.48002281 -8.3125 15.25 Z "
     fill="#FAFAFC"
     transform="translate(190.3125,275.75)"
     id="path10" />
  <path
     d="M0 0 C14 0 14 0 20 3 C25.68097013 8.98804959 25.28065503 14.59962271 25.22265625 22.5703125 C24.89583571 27.6044956 23.69108488 30.77084265 20.625 34.8125 C13.94459749 39.6943326 8.76004217 38 0 38 C0 25.46 0 12.92 0 0 Z "
     fill="#0E125E"
     transform="translate(210,150)"
     id="path11" />
  <path
     d="M0 0 C0 3.96 0 7.92 0 12 C-2.83203125 12.71614583 -5.6640625 13.43229167 -8.49609375 14.1484375 C-11.15570324 14.72573954 -11.15570324 14.72573954 -12 17 C-12.15411106 19.0307477 -12.24982453 21.06606421 -12.31640625 23.1015625 C-12.35830078 24.31328125 -12.40019531 25.525 -12.44335938 26.7734375 C-12.48267578 28.04445313 -12.52199219 29.31546875 -12.5625 30.625 C-12.60568359 31.90375 -12.64886719 33.1825 -12.69335938 34.5 C-12.7996981 37.66653082 -12.9003767 40.83325079 -13 44 C-17.29 44 -21.58 44 -26 44 C-26 29.81 -26 15.62 -26 1 C-22.04 1 -18.08 1 -14 1 C-13.67 1.99 -13.34 2.98 -13 4 C-12.154375 3.34 -11.30875 2.68 -10.4375 2 C-6.56563053 -0.25272405 -4.39721203 -0.35177696 0 0 Z "
     fill="#F9FCFD"
     transform="translate(245,276)"
     id="path12" />
  <path
     d="M0 0 C2.70894767 -0.08144943 5.41541263 -0.14070614 8.125 -0.1875 C8.88554687 -0.21263672 9.64609375 -0.23777344 10.4296875 -0.26367188 C15.34375855 -0.3272159 18.80044607 0.14796649 23 3 C24.00871737 6.46746597 24.32030889 8.81485712 23.375 12.3125 C21.44897435 14.67625875 19.93508756 15.10671248 17 16 C14.0568331 16.23305458 11.13744109 16.18929042 8.1875 16.125 C7.00510742 16.11146484 7.00510742 16.11146484 5.79882812 16.09765625 C3.86575334 16.07422504 1.9328362 16.03835838 0 16 C0 10.72 0 5.44 0 0 Z "
     fill="#191E64"
     transform="translate(268,172)"
     id="path13" />
  <path
     d="M0 0 C2.75026417 -0.05404449 5.49946203 -0.09369306 8.25 -0.125 C9.02730469 -0.14175781 9.80460937 -0.15851563 10.60546875 -0.17578125 C18.17755206 -0.24049991 18.17755206 -0.24049991 21 2 C22 5.375 22 5.375 22 9 C20.578125 11.2109375 20.578125 11.2109375 18 13 C14.90104752 13.48524256 11.87683108 13.37702751 8.75 13.25 C7.90953125 13.23195312 7.0690625 13.21390625 6.203125 13.1953125 C4.13492605 13.14830798 2.06731559 13.07656724 0 13 C0 8.71 0 4.42 0 0 Z "
     fill="#191A64"
     transform="translate(268,150)"
     id="path14" />
  <path
     d="M0 0 C2.64 0 5.28 0 8 0 C9.83691257 3.78187881 10.15837626 5.94568308 9 10 C9.598125 9.835 10.19625 9.67 10.8125 9.5 C13 9 13 9 16 9 C13.525 8.01 13.525 8.01 11 7 C11 5.02 11 3.04 11 1 C13.70879335 -0.35439668 16.00933268 -0.06501451 19 0 C19 1.32 19 2.64 19 4 C17.68 4 16.36 4 15 4 C15.804375 4.226875 16.60875 4.45375 17.4375 4.6875 C20 6 20 6 21 8.4375 C21 11 21 11 19.88671875 12.6796875 C17.10796108 14.62424256 15.12274842 14.07903476 11.8125 13.6875 C10.18248047 13.50767578 10.18248047 13.50767578 8.51953125 13.32421875 C7.68808594 13.21722656 6.85664063 13.11023438 6 13 C5.67 11.35 5.34 9.7 5 8 C4.34 8 3.68 8 3 8 C3 9.65 3 11.3 3 13 C2.01 13 1.02 13 0 13 C0 8.71 0 4.42 0 0 Z M3 3 C3 3.66 3 4.32 3 5 C3.99 5 4.98 5 6 5 C6 4.34 6 3.68 6 3 C5.01 3 4.02 3 3 3 Z "
     fill="#FAF9FA"
     transform="translate(349,348)"
     id="path15" />
  <path
     d="M0 0 C4.29 0 8.58 0 13 0 C13.33 0.99 13.66 1.98 14 3 C14.4125 2.505 14.825 2.01 15.25 1.5 C17 0 17 0 21 0 C20.4740625 1.0828125 20.4740625 1.0828125 19.9375 2.1875 C18.55966427 6.32100718 19.65739827 8.9721948 21 13 C18.525 12.505 18.525 12.505 16 12 C16 11.34 16 10.68 16 10 C15.34 10 14.68 10 14 10 C13.67 10.99 13.34 11.98 13 13 C8.71 13 4.42 13 0 13 C0 8.71 0 4.42 0 0 Z M9 1 C9 1.66 9 2.32 9 3 C7.35 3 5.7 3 4 3 C4 3.66 4 4.32 4 5 C5.65 5 7.3 5 9 5 C9 5.99 9 6.98 9 8 C7.35 8 5.7 8 4 8 C4 8.66 4 9.32 4 10 C5.65 10 7.3 10 9 10 C9.33 10.66 9.66 11.32 10 12 C10.99 10.02 11.98 8.04 13 6 C11.68 4.35 10.36 2.7 9 1 Z "
     fill="#FAF9FB"
     transform="translate(99,348)"
     id="path16" />
  <path
     d="M0 0 C0 1.32 0 2.64 0 4 C-2.97 3.505 -2.97 3.505 -6 3 C-6 4.65 -6 6.3 -6 8 C-5.01 8 -4.02 8 -3 8 C-1.68 8 -0.36 8 1 8 C2.32 5.03 3.64 2.06 5 -1 C6.32 -1 7.64 -1 9 -1 C9.67057887 0.7902061 10.3363469 2.58221489 11 4.375 C11.556875 5.87160156 11.556875 5.87160156 12.125 7.3984375 C13 10 13 10 13 12 C11.68 12 10.36 12 9 12 C9 11.34 9 10.68 9 10 C8.38125 10.309375 7.7625 10.61875 7.125 10.9375 C2.29822902 12.57860213 -3.29097433 13.89515631 -8.24609375 12.2578125 C-10 11 -10 11 -10.75 9.1953125 C-11.1884211 5.56463774 -11.39390021 3.67291286 -9.5 0.4375 C-6.03261103 -1.55624866 -3.80416135 -0.87788339 0 0 Z M6 4 C6 4.99 6 5.98 6 7 C6.66 6.67 7.32 6.34 8 6 C7.34 5.34 6.68 4.68 6 4 Z "
     fill="#F9F8F9"
     transform="translate(179,349)"
     id="path17" />
  <path
     d="M0 0 C3.375 0.9375 3.375 0.9375 5.375 3.9375 C4.84308511 10.00132979 4.84308511 10.00132979 3.375 12.9375 C0.39610525 13.73187193 -1.89604635 14.07541015 -4.9375 13.5 C-7.36059382 11.25639461 -7.54617353 9.14439335 -7.78125 5.91796875 C-7.625 3.9375 -7.625 3.9375 -6.125 1.375 C-3.625 -0.0625 -3.625 -0.0625 0 0 Z M-2.625 2.9375 C-3.98118499 4.06284105 -3.98118499 4.06284105 -3.6875 7 C-3.666875 7.969375 -3.64625 8.93875 -3.625 9.9375 C-1.975 9.6075 -0.325 9.2775 1.375 8.9375 C1.375 7.2875 1.375 5.6375 1.375 3.9375 C-0.57103274 3.34679986 -0.57103274 3.34679986 -2.625 2.9375 Z "
     fill="#F9F8F9"
     transform="translate(328.625,348.0625)"
     id="path18" />
  <path
     d="M0 0 C4.95 0 9.9 0 15 0 C15 0.33 15 0.66 15 1 C11.04 1 7.08 1 3 1 C3.00523682 1.9286084 3.01047363 2.8572168 3.01586914 3.81396484 C3.03289593 7.25423805 3.04544273 10.69446659 3.05493164 14.13476562 C3.05996514 15.62468166 3.06679242 17.11459274 3.07543945 18.60449219 C3.08754805 20.74415304 3.09323807 22.88374868 3.09765625 25.0234375 C3.10289307 26.31169434 3.10812988 27.59995117 3.11352539 28.92724609 C3 32 3 32 2 34 C1.34 34 0.68 34 0 34 C0 22.78 0 11.56 0 0 Z "
     fill="#07084E"
     transform="translate(211,151)"
     id="path19" />
  <path
     d="M0 0 C1.875 1 1.875 1 3 3 C3.46541727 5.75802827 3.50954515 8.2461661 3 11 C1.375 13.0625 1.375 13.0625 -1 14 C-4.67293796 13.77962372 -6.36966546 13.63033454 -9 11 C-9.55641422 3.98918083 -9.55641422 3.98918083 -7.875 1 C-5.10184376 -0.47901666 -3.08815875 -0.38601984 0 0 Z M-4 3 C-4.66 3.66 -5.32 4.32 -6 5 C-5.67958603 7.60280568 -5.67958603 7.60280568 -5 10 C-3.68 10 -2.36 10 -1 10 C-0.67 8.35 -0.34 6.7 0 5 C-1.32 4.34 -2.64 3.68 -4 3 Z "
     fill="#F9F8FA"
     transform="translate(344,348)"
     id="path20" />
  <path
     d="M0 0 C1.875 1 1.875 1 3 3 C3.46541727 5.75802827 3.50954515 8.2461661 3 11 C1.375 13.0625 1.375 13.0625 -1 14 C-4.67293796 13.77962372 -6.36966546 13.63033454 -9 11 C-9.55641422 3.98918083 -9.55641422 3.98918083 -7.875 1 C-5.10184376 -0.47901666 -3.08815875 -0.38601984 0 0 Z M-4 3 C-4.66 3.66 -5.32 4.32 -6 5 C-5.67958603 7.60280568 -5.67958603 7.60280568 -5 10 C-3.68 10 -2.36 10 -1 10 C-0.67 8.35 -0.34 6.7 0 5 C-1.32 4.34 -2.64 3.68 -4 3 Z "
     fill="#F9F8F9"
     transform="translate(275,348)"
     id="path21" />
  <path
     d="M0 0 C1.32 0 2.64 0 4 0 C5.75 2.5 5.75 2.5 7 5 C7.33 3.35 7.66 1.7 8 0 C8.99 0 9.98 0 11 0 C11 4.29 11 8.58 11 13 C9.35 12.67 7.7 12.34 6 12 C5.34 11.01 4.68 10.02 4 9 C3.67 10.32 3.34 11.64 3 13 C2.01 13 1.02 13 0 13 C0 8.71 0 4.42 0 0 Z "
     fill="#FAFAFB"
     transform="translate(238,348)"
     id="path22" />
  <path
     d="M0 0 C2.56002346 2.218687 2.94923191 3.65187593 3.4375 7 C3 10 3 10 1.375 12.4375 C-1 14 -1 14 -4.125 13.875 C-7 13 -7 13 -9 11 C-9.98904033 7.95045897 -10.10322212 6.34936717 -9.1875 3.25 C-7.0777692 -0.74738468 -4.21509487 -0.43011172 0 0 Z M-5 3 C-6.29633621 4.06645115 -6.29633621 4.06645115 -6.0625 6.5625 C-6.041875 7.366875 -6.02125 8.17125 -6 9 C-3.525 9.495 -3.525 9.495 -1 10 C-1 8.02 -1 6.04 -1 4 C-2.94603274 3.40929986 -2.94603274 3.40929986 -5 3 Z "
     fill="#F9F9FA"
     transform="translate(233,348)"
     id="path23" />
  <path
     d="M0 0 C2.97 0 5.94 0 9 0 C9 0.99 9 1.98 9 3 C7.02 3 5.04 3 3 3 C3 3.66 3 4.32 3 5 C4.65 5 6.3 5 8 5 C8 5.99 8 6.98 8 8 C6.35 8 4.7 8 3 8 C3 8.66 3 9.32 3 10 C6.3 10 9.6 10 13 10 C13 11.65 13 13.3 13 15 C11.02 15.99 11.02 15.99 9 17 C9.33 16.01 9.66 15.02 10 14 C6.7 13.67 3.4 13.34 0 13 C0 8.71 0 4.42 0 0 Z "
     fill="#FAF9FB"
     transform="translate(205,348)"
     id="path24" />
  <path
     d="M0 0 C6.0546875 -0.1953125 6.0546875 -0.1953125 8 0 C10 2 10 2 10.1953125 4.6015625 C10.17210937 5.59929687 10.14890625 6.59703125 10.125 7.625 C10.10695312 8.62789063 10.08890625 9.63078125 10.0703125 10.6640625 C10.03550781 11.82035156 10.03550781 11.82035156 10 13 C8.0625 12.6875 8.0625 12.6875 6 12 C5.67 11.01 5.34 10.02 5 9 C4.67 10.32 4.34 11.64 4 13 C2.68 13 1.36 13 0 13 C0 8.71 0 4.42 0 0 Z M4 3 C4 3.66 4 4.32 4 5 C4.66 5 5.32 5 6 5 C6 4.34 6 3.68 6 3 C5.34 3 4.68 3 4 3 Z "
     fill="#FAFAFA"
     transform="translate(193,348)"
     id="path25" />
  <path
     d="M0 0 C0.99 0 1.98 0 3 0 C3.33 2.97 3.66 5.94 4 9 C4.99 9.33 5.98 9.66 7 10 C7 6.7 7 3.4 7 0 C8.32 0 9.64 0 11 0 C11.10815225 1.76949095 11.18566083 3.54087487 11.25 5.3125 C11.29640625 6.29863281 11.3428125 7.28476562 11.390625 8.30078125 C11 11 11 11 9.18359375 12.87109375 C6.1440955 14.44249803 4.23620162 13.8629871 1 13 C0 12 0 12 -0.09765625 9.27734375 C-0.08605469 8.17519531 -0.07445312 7.07304687 -0.0625 5.9375 C-0.05347656 4.83277344 -0.04445313 3.72804688 -0.03515625 2.58984375 C-0.02355469 1.73519531 -0.01195312 0.88054687 0 0 Z "
     fill="#FAF9FB"
     transform="translate(280,348)"
     id="path26" />
  <path
     d="M0 0 C3.46093134 -0.19966912 6.2014503 -0.32761013 9.4375 1 C11.98547035 4.26140205 11.38667164 6.93994776 11 11 C9 13 9 13 6.8359375 13.1953125 C4.55729167 13.13020833 2.27864583 13.06510417 0 13 C0 8.71 0 4.42 0 0 Z M3 3 C3 5.31 3 7.62 3 10 C4.32 10 5.64 10 7 10 C7.67958603 7.60280568 7.67958603 7.60280568 8 5 C7.34 4.34 6.68 3.68 6 3 C5.01 3 4.02 3 3 3 Z "
     fill="#F9FBFA"
     transform="translate(309,348)"
     id="path27" />
  <path
     d="M0 0 C3.3 0 6.6 0 10 0 C10 0.99 10 1.98 10 3 C8.02 3 6.04 3 4 3 C4 3.66 4 4.32 4 5 C5.65 5 7.3 5 9 5 C9 5.99 9 6.98 9 8 C7.35 8 5.7 8 4 8 C4 8.66 4 9.32 4 10 C5.98 10 7.96 10 10 10 C10 10.99 10 11.98 10 13 C6.7 13 3.4 13 0 13 C0 8.71 0 4.42 0 0 Z "
     fill="#FAF9FB"
     transform="translate(132,348)"
     id="path28" />
  <path
     d="M0 0 C2.64 0 5.28 0 8 0 C10.125 4.625 10.125 4.625 9 8 C9.39397335 10.63804589 9.39397335 10.63804589 10 13 C8.68 13 7.36 13 6 13 C5.67 11.35 5.34 9.7 5 8 C4.34 8 3.68 8 3 8 C3 9.65 3 11.3 3 13 C2.01 13 1.02 13 0 13 C0 8.71 0 4.42 0 0 Z M3 3 C3 3.66 3 4.32 3 5 C3.99 5 4.98 5 6 5 C6 4.34 6 3.68 6 3 C5.01 3 4.02 3 3 3 Z "
     fill="#F7FAFB"
     transform="translate(293,348)"
     id="path29" />
  <path
     d="M0 0 C2.64 0 5.28 0 8 0 C10.125 4.625 10.125 4.625 9 8 C9.39397335 10.63804589 9.39397335 10.63804589 10 13 C8.68 13 7.36 13 6 13 C5.67 11.35 5.34 9.7 5 8 C4.34 8 3.68 8 3 8 C3 9.65 3 11.3 3 13 C2.01 13 1.02 13 0 13 C0 8.71 0 4.42 0 0 Z M3 3 C3 3.66 3 4.32 3 5 C3.99 5 4.98 5 6 5 C6 4.34 6 3.68 6 3 C5.01 3 4.02 3 3 3 Z "
     fill="#F9F9F9"
     transform="translate(143,348)"
     id="path30" />
  <path
     d="M0 0 C2.97 0 5.94 0 9 0 C9 0.99 9 1.98 9 3 C7.35 3 5.7 3 4 3 C4 3.66 4 4.32 4 5 C5.65 5 7.3 5 9 5 C9 5.99 9 6.98 9 8 C7.35 8 5.7 8 4 8 C4 8.66 4 9.32 4 10 C5.65 10 7.3 10 9 10 C9 10.99 9 11.98 9 13 C6.03 13 3.06 13 0 13 C0 8.71 0 4.42 0 0 Z "
     fill="#F9FBFC"
     transform="translate(381,348)"
     id="path31" />
  <path
     d="M0 0 C6.39075249 -0.36174071 6.39075249 -0.36174071 9 1.1875 C10 3 10 3 9.6875 5.6875 C9.460625 6.450625 9.23375 7.21375 9 8 C7.02 8.33 5.04 8.66 3 9 C3 10.32 3 11.64 3 13 C2.01 13 1.02 13 0 13 C0 8.71 0 4.42 0 0 Z M3 3 C3 3.99 3 4.98 3 6 C3.99 6 4.98 6 6 6 C6 5.01 6 4.02 6 3 C5.01 3 4.02 3 3 3 Z "
     fill="#FBFAFB"
     transform="translate(392,348)"
     id="path32" />
  <path
     d="M0 0 C6.39075249 -0.36174071 6.39075249 -0.36174071 9 1.1875 C10 3 10 3 9.6875 5.6875 C9.460625 6.450625 9.23375 7.21375 9 8 C7.02 8.33 5.04 8.66 3 9 C3 10.32 3 11.64 3 13 C2.01 13 1.02 13 0 13 C0 8.71 0 4.42 0 0 Z M3 3 C3 3.99 3 4.98 3 6 C3.99 6 4.98 6 6 6 C6 5.01 6 4.02 6 3 C5.01 3 4.02 3 3 3 Z "
     fill="#FAFAFC"
     transform="translate(121,348)"
     id="path33" />
  <path
     d="M0 0 C3.3 0 6.6 0 10 0 C10 0.99 10 1.98 10 3 C9.01 3 8.02 3 7 3 C7 6.3 7 9.6 7 13 C5.68 13 4.36 13 3 13 C3 9.7 3 6.4 3 3 C2.01 3 1.02 3 0 3 C0 2.01 0 1.02 0 0 Z "
     fill="#F9FBFD"
     transform="translate(370,348)"
     id="path34" />
  <path
     d="M0 0 C2.86724686 0.57344937 3.8614515 0.8614515 6 3 C6.66 2.01 7.32 1.02 8 0 C8.99 0 9.98 0 11 0 C10.45276317 3.37462715 9.9451 5.08235 8 8 C7.61500109 9.65549531 7.27206865 11.3222433 7 13 C6.01 13 5.02 13 4 13 C3.51891725 11.58398286 3.04021859 10.16715563 2.5625 8.75 C2.29566406 7.96109375 2.02882813 7.1721875 1.75390625 6.359375 C1.08045292 4.25178012 0.50849405 2.15246027 0 0 Z "
     fill="#FAF9FA"
     transform="translate(254,348)"
     id="path35" />
  <path
     d="M0 0 C3.63 0 7.26 0 11 0 C11 0.99 11 1.98 11 3 C9.68 3 8.36 3 7 3 C7 6.3 7 9.6 7 13 C6.01 13 5.02 13 4 13 C4 9.7 4 6.4 4 3 C2.68 3 1.36 3 0 3 C0 2.01 0 1.02 0 0 Z "
     fill="#FAFAFB"
     transform="translate(153,348)"
     id="path36" />
  <path
     d="M0 0 C5.61 0 11.22 0 17 0 C16.67 0.99 16.34 1.98 16 3 C10.39 3 4.78 3 -1 3 C-0.67 2.01 -0.34 1.02 0 0 Z "
     fill="#02094F"
     transform="translate(270,184)"
     id="path37" />
  <path
     d="M0 0 C0.66 0 1.32 0 2 0 C2.66 1.32 3.32 2.64 4 4 C3.01 5.32 2.02 6.64 1 8 C-0.32 7.67 -1.64 7.34 -3 7 C-1.125 2.25 -1.125 2.25 0 0 Z "
     fill="#0C1254"
     transform="translate(236,136)"
     id="path38" />
  <path
     d="M0 0 C0 2.31 0 4.62 0 7 C-1.98 6.34 -3.96 5.68 -6 5 C-4.87312259 1.61936778 -3.78825335 0 0 0 Z "
     fill="#191C53"
     transform="translate(302,163)"
     id="path39" />
  <path
     d="M0 0 C0.99 0 1.98 0 3 0 C1.73058503 3.91402949 0.48832306 5.79072873 -3 8 C-3.99 7.01 -4.98 6.02 -6 5 C-5.195625 4.54625 -4.39125 4.0925 -3.5625 3.625 C-0.91143428 2.25274335 -0.91143428 2.25274335 0 0 Z "
     fill="#E7EDF7"
     transform="translate(298,160)"
     id="path40" />
  <path
     d="M0 0 C0.66 0 1.32 0 2 0 C2 0.66 2 1.32 2 2 C2.66 2.33 3.32 2.66 4 3 C2.6875 4.5 2.6875 4.5 1 6 C0.01 6 -0.98 6 -2 6 C-1.49396008 3.83125748 -1.00016187 2.00032373 0 0 Z "
     fill="#04074C"
     transform="translate(316,240)"
     id="path41" />
</svg>
